<?xml version="1.0" standalone="no"?>
<!DOCTYPE svg PUBLIC "-//W3C//DTD SVG 20010904//EN"
 "http://www.w3.org/TR/2001/REC-SVG-20010904/DTD/svg10.dtd">
<svg version="1.0" xmlns="http://www.w3.org/2000/svg"
 width="700.000000pt" height="700.000000pt" viewBox="0 0 700.000000 700.000000"
 preserveAspectRatio="xMidYMid meet">
<metadata>
Created by potrace 1.11, written by Peter Selinger 2001-2013
</metadata>
<g transform="translate(0.000000,700.000000) scale(0.100000,-0.100000)"
fill="#000000" stroke="none">
<path d="M3278 6995 c-2 -1 -42 -5 -89 -9 -47 -4 -95 -8 -105 -10 -10 -2 -46
-7 -79 -11 -32 -4 -68 -9 -80 -11 -73 -14 -133 -26 -155 -30 -484 -97 -1002
-338 -1420 -663 -367 -284 -694 -667 -917 -1076 -52 -95 -143 -280 -143 -291
0 -2 -11 -27 -24 -56 -43 -96 -112 -298 -142 -413 -4 -16 -8 -34 -10 -40 -5
-16 -25 -98 -30 -120 -39 -194 -47 -242 -60 -350 -26 -231 -26 -674 1 -826 2
-13 7 -46 10 -74 34 -322 167 -746 343 -1095 209 -415 479 -758 857 -1089 80
-70 275 -216 357 -266 17 -11 39 -25 48 -30 102 -67 350 -198 485 -256 117
-50 366 -137 439 -154 12 -3 66 -16 121 -29 108 -27 118 -29 245 -50 203 -35
284 -41 565 -41 214 0 427 9 445 20 3 1 28 5 55 9 104 13 247 41 385 77 1168
303 2099 1190 2463 2344 35 111 101 386 111 460 2 22 9 69 15 105 33 208 36
771 6 914 -2 11 -7 44 -11 71 -3 28 -8 62 -10 76 -14 108 -85 391 -132 529
-77 223 -185 464 -288 637 -33 54 -61 103 -64 108 -17 33 -158 234 -218 309
-344 430 -740 749 -1226 987 -90 43 -170 79 -178 79 -7 0 -18 4 -23 9 -30 29
-417 149 -600 186 -44 9 -89 19 -100 21 -11 2 -38 6 -60 9 -22 3 -51 7 -65 10
-13 2 -52 7 -86 11 -33 3 -74 8 -90 10 -32 5 -540 14 -546 9z"/>
</g>
</svg>
