<svg id="Layer_1" xmlns="http://www.w3.org/2000/svg" viewBox="0 0 387.7 387.7"><style>.st0{fill:#0FCCDA;} .st1{fill:#FFFFFF;}</style><circle class="st0" cx="193.9" cy="193.9" r="193.9"/><path class="st1" d="M311.3 294.6c3.8-2.2 5.8-5.5 6.9-9.2V142.1c.1-21.7-11.6-40.8-28.9-47.5-10.7-4.1-32.4-6.8-57.8 21.1-2.6 2.6-17.7 18.1-37.6 38.8-20-20.6-35.1-36.2-37.6-38.8-25.4-28-47.1-25.3-57.8-21.1-17.4 6.7-29 25.8-28.9 47.5v142.1c1 4.2 3 7.9 7.2 10.4 4.8 2.8 10.3.1 15.4-3.6l101.7-105 12.2 12.5 88.8 91.5c5.3 4.2 11.2 7.6 16.4 4.6zm-220.1-34V142.1c0-12.6 6.1-23.9 15-27.3 9.5-3.7 21.6 1.9 34.1 15.7l.3.3.2.2-.2.2 37.9 39.1c-30.1 31.1-65.9 68.1-87.3 90.3zm205.3 0c-18.6-19.3-48.1-49.8-75.3-77.9-4.1-4.2-8.1-8.4-12-12.4l5.7-5.9 32.2-33.2-.2-.2.3-.3.2-.2c12.4-13.8 24.5-19.3 34.1-15.7 8.9 3.4 15.1 14.6 15 27.2v118.6z"/></svg>